<svg xmlns="http://www.w3.org/2000/svg" xmlns:xlink="http://www.w3.org/1999/xlink" version="1.1" x="0px" y="0px" viewBox="0 0 100 125" enable-background="new 0 0 100 100" xml:space="preserve"><path d="M18.178,18.176c-17.546,17.548-17.546,45.999,0,63.545c17.548,17.548,45.995,17.548,63.543,0  c17.548-17.549,17.548-45.997,0-63.545C64.176,0.63,35.726,0.629,18.178,18.176z M77.628,77.628  c-15.289,15.286-40.07,15.286-55.357,0c-15.286-15.286-15.286-40.071,0-55.357c15.287-15.287,40.068-15.287,55.357,0  C92.914,37.556,92.914,62.338,77.628,77.628z"/><path d="M49.533,16.667c-18.303,0-33.141,14.838-33.141,33.143c0,18.303,14.837,33.141,33.141,33.141  c18.303,0,33.141-14.838,33.141-33.141C82.674,31.505,67.836,16.667,49.533,16.667z M41.164,49.956  c-5.055,0-9.151-4.097-9.151-9.152c0-5.055,4.097-9.152,9.151-9.152s9.151,4.098,9.151,9.152  C50.315,45.859,46.218,49.956,41.164,49.956z M59.822,59.317c-2.627,0-4.755-2.127-4.755-4.753c0-2.627,2.128-4.755,4.755-4.755  c2.625,0,4.754,2.128,4.754,4.755C64.576,57.19,62.447,59.317,59.822,59.317z"/></svg>